<?xml version="1.0" standalone="no"?>
<!DOCTYPE svg PUBLIC "-//W3C//DTD SVG 20010904//EN"
 "http://www.w3.org/TR/2001/REC-SVG-20010904/DTD/svg10.dtd">
<svg version="1.0" xmlns="http://www.w3.org/2000/svg"
 width="250.000000pt" height="250.000000pt" viewBox="0 0 250.000000 250.000000"
 preserveAspectRatio="xMidYMid meet">
<metadata>
Created by potrace 1.14, written by Peter Selinger 2001-2017
</metadata>
<g transform="translate(0.000000,250.000000) scale(0.100000,-0.100000)"
fill="#000000" stroke="none">
<path d="M1160 2405 c-8 -2 -49 -9 -90 -15 -64 -11 -198 -46 -208 -55 -6 -5
151 -310 193 -376 74 -114 110 -134 144 -78 30 49 53 216 63 454 l3 70 -45 2
c-25 0 -52 0 -60 -2z"/>
<path d="M1294 2278 c21 -423 72 -516 187 -346 41 59 209 380 209 397 0 21
-271 81 -364 81 l-39 0 7 -132z"/>
<path d="M741 2279 c-44 -22 -118 -68 -163 -101 l-82 -61 79 -74 c120 -112
270 -230 326 -258 122 -63 120 41 -9 402 -26 73 -52 133 -58 133 -7 0 -48 -18
-93 -41z"/>
<path d="M1706 2312 c-14 -22 -100 -278 -121 -361 -31 -116 -32 -166 -5 -181
24 -13 71 5 127 47 62 45 275 228 312 267 40 42 47 32 -74 115 -69 47 -205
121 -224 121 -5 0 -12 -4 -15 -8z"/>
<path d="M410 2033 c-54 -60 -162 -211 -176 -246 -5 -14 27 -27 261 -107 156
-53 242 -73 295 -68 30 3 35 7 38 31 6 49 -58 140 -245 349 -53 59 -100 108
-104 108 -4 0 -35 -30 -69 -67z"/>
<path d="M2006 2034 c-205 -228 -278 -328 -280 -383 -1 -35 0 -36 39 -39 50
-5 122 11 253 54 127 43 294 103 300 109 6 6 -43 88 -89 151 -43 59 -148 174
-158 174 -3 -1 -32 -30 -65 -66z"/>
<path d="M1578 1592 c-10 -26 -36 -88 -60 -138 -35 -77 -49 -96 -85 -118 -61
-39 -111 -30 -189 34 -79 64 -99 66 -138 14 -17 -23 -36 -50 -42 -60 -11 -18
-13 -18 -30 -3 -44 38 -92 5 -151 -99 -20 -36 -45 -67 -58 -72 -31 -12 -38
-26 -24 -48 10 -16 6 -30 -22 -83 -20 -36 -40 -63 -48 -61 -7 1 -24 -5 -38
-13 -14 -9 -78 -34 -144 -55 -150 -49 -339 -129 -346 -146 -7 -20 59 -138 132
-236 296 -394 820 -561 1295 -413 295 93 552 309 701 591 l31 59 -69 32 c-175
82 -434 163 -622 193 -49 8 -69 15 -60 21 9 6 1 9 -26 9 -57 0 -157 18 -169
30 -6 6 -3 17 11 32 11 13 25 33 31 44 l11 22 39 -19 c30 -15 45 -17 64 -10
31 12 58 75 58 134 0 53 -32 123 -59 132 -28 9 -27 16 13 77 34 55 76 133 76
143 0 3 -30 -39 -67 -94 -38 -54 -70 -98 -72 -96 -2 2 13 44 33 94 34 83 54
151 45 151 -3 0 -12 -21 -21 -48z m-388 -234 c31 -19 46 -34 39 -38 -8 -6 -8
-9 0 -14 22 -14 10 -23 -45 -35 -46 -11 -61 -11 -80 0 -13 7 -24 17 -24 22 0
11 49 97 55 97 2 0 27 -14 55 -32z m-180 -78 c20 -16 23 -22 14 -37 -12 -19
-124 -67 -124 -52 0 17 62 109 73 109 7 0 23 -9 37 -20z m-122 -246 c-6 -8 4
-13 32 -16 22 -2 40 -1 40 3 0 3 37 9 83 13 45 3 111 13 147 22 72 17 113 12
104 -11 -4 -8 -1 -21 5 -29 9 -11 -16 -14 -142 -19 -83 -4 -200 -15 -259 -25
-60 -11 -108 -18 -108 -17 0 1 13 32 30 68 l30 66 23 -22 c14 -14 20 -26 15
-33z m500 14 c-2 -28 1 -34 20 -36 12 -2 22 -7 22 -11 0 -9 -80 1 -98 13 -20
12 -14 30 16 48 39 23 44 22 40 -14z"/>
</g>
</svg>
